<?xml version="1.0" encoding="UTF-8" standalone="no"?>
<!-- Created with Inkscape (http://www.inkscape.org/) -->

<svg
   width="134.07195"
   height="29.115898"
   viewBox="0 0 134.07195 29.115898"
   version="1.1"
   id="svg1"
   inkscape:export-filename="../../NEW DESIGN/LOGOS.svg"
   inkscape:export-xdpi="5333.3301"
   inkscape:export-ydpi="5333.3301"
   inkscape:version="1.3 (0e150ed, 2023-07-21)"
   sodipodi:docname="treu-header.svg"
   xmlns:inkscape="http://www.inkscape.org/namespaces/inkscape"
   xmlns:sodipodi="http://sodipodi.sourceforge.net/DTD/sodipodi-0.dtd"
   xmlns="http://www.w3.org/2000/svg"
   xmlns:svg="http://www.w3.org/2000/svg">
  <sodipodi:namedview
     id="namedview1"
     pagecolor="#ffffff"
     bordercolor="#000000"
     borderopacity="0.25"
     inkscape:showpageshadow="2"
     inkscape:pageopacity="0.0"
     inkscape:pagecheckerboard="0"
     inkscape:deskcolor="#d1d1d1"
     inkscape:document-units="px"
     showgrid="false"
     inkscape:zoom="2.8284271"
     inkscape:cx="90.686445"
     inkscape:cy="51.618795"
     inkscape:window-width="1440"
     inkscape:window-height="847"
     inkscape:window-x="0"
     inkscape:window-y="25"
     inkscape:window-maximized="0"
     inkscape:current-layer="layer1"
     inkscape:export-bgcolor="#ffffff00"
     showguides="false">
    <inkscape:grid
       id="grid1"
       units="px"
       originx="-24.567318"
       originy="-75.443893"
       spacingx="1"
       spacingy="1"
       empcolor="#0099e5"
       empopacity="0.30196078"
       color="#0099e5"
       opacity="0.14901961"
       empspacing="5"
       dotted="false"
       gridanglex="30"
       gridanglez="30"
       visible="false" />
  </sodipodi:namedview>
  <defs
     id="defs1" />
  <g
     inkscape:label="Layer 1"
     inkscape:groupmode="layer"
     id="layer1"
     transform="translate(-24.567318,-75.443893)">
    <g
       id="g1">
      <path
         style="font-weight:900;font-size:40.3993px;line-height:0;font-family:Roboto;-inkscape-font-specification:'Roboto Heavy';letter-spacing:0px;word-spacing:0px;fill:#009fd8;stroke:#000000;stroke-width:0;stroke-linecap:square;stroke-opacity:0;paint-order:markers stroke fill"
         d="M 84.231961,80.789697 H 75.611603 V 104.16527 H 68.6877 V 80.789697 h -8.462549 v -5.345806 h 24.00681 z M 97.823327,94.025991 H 94.075346 V 104.16527 H 87.151442 V 75.443891 h 11.303124 q 5.109094,0 7.989124,2.268515 2.88002,2.268516 2.88002,6.411022 0,2.998385 -1.22302,4.971007 -1.2033,1.972623 -3.78744,3.195648 l 5.99677,11.579287 v 0.2959 h -7.41705 z m -3.747981,-5.345806 h 4.37922 q 1.972624,0 2.958934,-1.025764 1.00604,-1.045489 1.00604,-2.899754 0,-1.854265 -1.00604,-2.899754 -1.00604,-1.065216 -2.958934,-1.065216 h -4.37922 z m 37.243104,3.314005 h -10.88887 v 6.844998 h 12.86149 v 5.326082 h -19.7854 V 75.443891 h 19.82485 v 5.345806 h -12.90094 v 6.055949 h 10.88887 z m 27.32082,-16.550299 v 18.799088 q 0,3.195648 -1.36111,5.543068 -1.36111,2.327693 -3.90579,3.550723 -2.54469,1.22302 -6.0165,1.22302 -5.24718,0 -8.26529,-2.72222 -3.01811,-2.722215 -3.07729,-7.456507 V 75.443891 h 6.96336 v 19.075255 q 0.11836,4.714567 4.37922,4.714567 2.15016,0 3.25483,-1.183573 1.10466,-1.183574 1.10466,-3.846613 V 75.443891 Z"
         id="text13-0-2-3-2-9"
         aria-label="TREU" />
      <path
         id="path39"
         style="fill:#009fd8;fill-opacity:1;stroke:#000000;stroke-width:0;stroke-opacity:0;paint-order:markers stroke fill"
         d="m 39.955461,104.17035 h 13.336897 v -9.07793 l -6.667847,-4.257762 -6.66905,4.258647 z" />
      <path
         id="path49"
         style="fill:#cccccc;fill-opacity:1;stroke:#000000;stroke-width:0;stroke-opacity:0;paint-order:markers stroke fill"
         d="M 37.903815,98.099964 24.567319,89.808033 v 14.362317 h 13.336496 z" />
      <path
         id="path40"
         style="fill:#cccccc;fill-opacity:1;stroke:#000000;stroke-width:0;stroke-opacity:0;paint-order:markers stroke fill"
         d="m 39.955461,81.537699 0.0088,-0.0164 13.328083,8.286734 V 75.445313 H 39.955461 Z" />
      <path
         id="path47"
         style="fill:#009fd8;fill-opacity:1;stroke:#000000;stroke-width:0;stroke-opacity:0;paint-order:markers stroke fill"
         d="M 37.903815,75.445313 H 24.567319 v 9.074716 l 6.673457,4.260239 6.663039,-4.25315 z" />
    </g>
  </g>
</svg>
